<?xml version="1.0" encoding="UTF-8" standalone="no"?>
<!-- Created with Inkscape (http://www.inkscape.org/) -->

<svg
   xmlns:dc="http://purl.org/dc/elements/1.1/"
   xmlns:cc="http://creativecommons.org/ns#"
   xmlns:rdf="http://www.w3.org/1999/02/22-rdf-syntax-ns#"
   xmlns:svg="http://www.w3.org/2000/svg"
   xmlns="http://www.w3.org/2000/svg"
   xmlns:sodipodi="http://sodipodi.sourceforge.net/DTD/sodipodi-0.dtd"
   xmlns:inkscape="http://www.inkscape.org/namespaces/inkscape"
   width="282.2222mm"
   height="127.67646mm"
   viewBox="0 0 999.99989 452.39692"
   id="svg7988"
   version="1.1"
   inkscape:version="0.91 r13725"
   sodipodi:docname="Prudential plc logo 2.svg">
  <defs
     id="defs7990">
    <clipPath
       clipPathUnits="userSpaceOnUse"
       id="clipPath332">
      <path
         d="m 0,0 595.276,0 0,841.89 L 0,841.89 0,0 Z"
         id="path334"
         inkscape:connector-curvature="0" />
    </clipPath>
    <clipPath
       clipPathUnits="userSpaceOnUse"
       id="clipPath278">
      <path
         d="m 0,0 595.276,0 0,841.89 L 0,841.89 0,0 Z"
         id="path280"
         inkscape:connector-curvature="0" />
    </clipPath>
    <clipPath
       clipPathUnits="userSpaceOnUse"
       id="clipPath254">
      <path
         d="m 0,0 595.276,0 0,841.89 L 0,841.89 0,0 Z"
         id="path256"
         inkscape:connector-curvature="0" />
    </clipPath>
    <clipPath
       clipPathUnits="userSpaceOnUse"
       id="clipPath164">
      <path
         d="m 0,0 595.276,0 0,841.89 L 0,841.89 0,0 Z"
         id="path166"
         inkscape:connector-curvature="0" />
    </clipPath>
    <clipPath
       clipPathUnits="userSpaceOnUse"
       id="clipPath134">
      <path
         d="m 0,0 595.276,0 0,841.89 L 0,841.89 0,0 Z"
         id="path136"
         inkscape:connector-curvature="0" />
    </clipPath>
  </defs>
  <sodipodi:namedview
     id="base"
     pagecolor="#ffffff"
     bordercolor="#666666"
     borderopacity="1.0"
     inkscape:pageopacity="0.0"
     inkscape:pageshadow="2"
     inkscape:zoom="0.35"
     inkscape:cx="120.28116"
     inkscape:cy="-22.934537"
     inkscape:document-units="px"
     inkscape:current-layer="layer1"
     showgrid="false"
     fit-margin-top="0"
     fit-margin-left="0"
     fit-margin-right="0"
     fit-margin-bottom="0"
     inkscape:window-width="1366"
     inkscape:window-height="705"
     inkscape:window-x="-8"
     inkscape:window-y="-8"
     inkscape:window-maximized="1" />
  <metadata
     id="metadata7993">
    <rdf:RDF>
      <cc:Work
         rdf:about="">
        <dc:format>image/svg+xml</dc:format>
        <dc:type
           rdf:resource="http://purl.org/dc/dcmitype/StillImage" />
        <dc:title></dc:title>
      </cc:Work>
    </rdf:RDF>
  </metadata>
  <g
     inkscape:label="Layer 1"
     inkscape:groupmode="layer"
     id="layer1"
     transform="translate(-374.73562,-57.030771)">
    <g
       id="g126"
       transform="matrix(6.6605658,0,0,-6.6605658,1298.2123,367.91133)">
      <path
         d="m 0,0 0,-20.826 11.489,0 0,2.478 -7.93,0 L 3.559,0 0,0 Z"
         style="fill:#ed1c2e;fill-opacity:1;fill-rule:nonzero;stroke:none"
         id="path128"
         inkscape:connector-curvature="0" />
    </g>
    <g
       transform="matrix(6.6605658,0,0,-6.6605658,-191.67696,940.46091)"
       id="g130">
      <g
         id="g132"
         clip-path="url(#clipPath134)">
        <g
           id="g138"
           transform="translate(108.3137,85.9464)">
          <path
             d="m 0,0 c 1.103,0 2.095,-0.049 2.909,-0.354 2.328,-0.866 3.888,-2.699 3.888,-5.584 0,-2.523 -1.56,-4.62 -3.736,-5.487 l 6.186,-9.4 -4.403,0 -5.373,8.491 -3.682,0 0,-8.491 -3.808,0 L -8.019,0 0,0 Z m -4.211,-9.924 2.562,0 0.811,-0.008 c 2.343,0 3.649,1.293 3.649,3.946 0,1.505 -0.431,3.864 -3.4,3.864 l -3.622,0 0,-7.802 z"
             style="fill:#ed1c2e;fill-opacity:1;fill-rule:nonzero;stroke:none"
             id="path140"
             inkscape:connector-curvature="0" />
        </g>
        <g
           id="g142"
           transform="translate(91.9427,85.9464)">
          <path
             d="m 0,0 c 1.152,0 2.012,0.043 2.699,-0.067 3.295,-0.522 5.097,-2.887 5.097,-6.425 0,-2.303 -1.125,-4.011 -2.747,-5.188 -1.234,-0.89 -2.942,-1.186 -5.001,-1.186 l -3.197,0 0,-7.959 -3.754,0 L -6.903,0 0,0 Z m 0.305,-10.587 c 3.182,0.099 3.678,2.546 3.678,4.309 0,3.662 -2.097,4.112 -3.935,4.112 l -3.197,0 0,-8.421 3.454,0 z"
             style="fill:#ed1c2e;fill-opacity:1;fill-rule:nonzero;stroke:none"
             id="path144"
             inkscape:connector-curvature="0" />
        </g>
        <g
           id="g146"
           transform="translate(130.0135,65.1212)">
          <path
             d="m 0,0 c 1.151,0.582 2.4,1.522 3.01,2.311 l 4.648,0 c 1.797,0 3.184,0.577 4.26,1.347 2.062,1.476 3.253,3.965 3.253,7.329 0,2.929 -1.714,5.767 -3.247,6.585 -1.656,0.888 -1.881,1.039 -4.349,1.039 l -3.737,0 0,-10.931 C 3.838,5.351 3.372,3.697 1.963,2.297 0.25,0.591 -2.367,-0.407 -5.133,-0.407 c -5.855,0 -9.332,2.736 -9.332,7.608 l 0,13.634 3.544,0 0,-13.171 c 0,-0.996 0.098,-1.815 0.28,-2.431 0.542,-1.89 2.78,-3.081 5.508,-3.081 3.477,0 5.279,1.927 5.279,5.464 l 0,13.219 8.761,-0.01 c 1.845,0 3.448,-0.248 4.667,-0.788 3.368,-1.498 5.615,-4.575 5.615,-9.305 C 19.189,5.488 16.047,0 7.534,0 L 0,0 Z"
             style="fill:#ed1c2e;fill-opacity:1;fill-rule:nonzero;stroke:none"
             id="path148"
             inkscape:connector-curvature="0" />
        </g>
      </g>
    </g>
    <path
       d="m 1137.3124,506.53171 24.6375,0 0,-138.66631 -24.6375,0 0,138.66631 z"
       style="fill:#ed1c2e;fill-opacity:1;fill-rule:nonzero;stroke:none"
       id="path150"
       inkscape:connector-curvature="0" />
    <g
       id="g152"
       transform="matrix(6.6605658,0,0,-6.6605658,1014.4196,383.52838)">
      <path
         d="m 0,0 7.345,0 0,-18.467 3.705,0 0,18.467 6.776,0 0,2.34 -20.604,0 0,-15.353 -12.416,15.343 -3.137,0 0,-18.374 -10.05,0 0,7.123 8.678,0 0,2.412 -8.678,0 0,6.562 9.114,0 0,2.277 -12.743,0 0,-20.825 16.47,0 0,15.249 12.549,-15.249 2.991,0 L 0,0 Z"
         style="fill:#ed1c2e;fill-opacity:1;fill-rule:nonzero;stroke:none"
         id="path154"
         inkscape:connector-curvature="0" />
    </g>
    <g
       id="g156"
       transform="matrix(6.6605658,0,0,-6.6605658,1240.5358,367.86337)">
      <path
         d="m 0,0 8.791,-20.819 -4.025,0 -2.233,5.528 -8.775,0 -2.325,-5.528 -3.315,0 L -2.829,0 0,0 Z m -5.251,-12.91 6.819,0 -3.452,8.296 -3.367,-8.296 z"
         style="fill:#ed1c2e;fill-opacity:1;fill-rule:nonzero;stroke:none"
         id="path158"
         inkscape:connector-curvature="0" />
    </g>
    <g
       transform="matrix(6.6605658,0,0,-6.6605658,-191.67696,940.46091)"
       id="g160">
      <g
         id="g162"
         clip-path="url(#clipPath164)">
        <g
           id="g168"
           transform="translate(149.6456,132.2864)">
          <path
             d="m 0,0 c 0.508,0 0.391,-0.767 1.472,-0.767 0.619,0 0.692,0.303 1.421,0.303 2.102,0 2.871,-2.531 4.329,-2.531 0.666,0 0.729,0.443 1.43,0.443 0.264,0 0.75,-0.151 0.942,-0.352 0.195,-0.19 0.61,-0.542 1.659,-3.399 0.118,-0.313 -0.05,-0.439 -0.21,-0.439 -0.158,0 -0.486,0.148 -1.22,0.917 C 9.406,-5.389 9.059,-5.591 7.238,-4.45 6.381,-3.918 5.557,-3.143 4.642,-2.8 3.72,-2.462 2.185,-2.328 1.602,-2.188 0.841,-2.011 -0.374,-1.43 -0.374,-0.547 -0.374,-0.255 -0.202,0 0,0"
             style="fill:#68737a;fill-opacity:1;fill-rule:nonzero;stroke:none"
             id="path170"
             inkscape:connector-curvature="0" />
        </g>
        <g
           id="g172"
           transform="translate(160.0107,132.6359)">
          <path
             d="m 0,0 c 0.423,0 0.761,-0.662 1.206,-1.103 1.042,-0.998 2.659,-0.354 3.884,-1.581 0.313,-0.318 0.564,-1.07 0.564,-1.792 0,-0.727 -0.16,-1.469 -0.533,-1.469 -0.869,0 -0.306,1.408 -2.062,2.453 -1.761,1.049 -2.053,1.097 -2.775,1.826 -0.729,0.731 -0.762,1.013 -0.762,1.209 C -0.478,-0.264 -0.341,0 0,0"
             style="fill:#68737a;fill-opacity:1;fill-rule:nonzero;stroke:none"
             id="path174"
             inkscape:connector-curvature="0" />
        </g>
        <g
           id="g176"
           transform="translate(167.96,129.3397)">
          <path
             d="m 0,0 c 0.43,0 0.305,-0.602 0.792,-1 0.477,-0.4 0.791,-0.27 1.461,-0.936 0.3,-0.298 0.377,-0.498 0.377,-0.581 0,-0.084 -0.166,-1.131 -1.25,-1.131 -0.234,0 -0.42,0.048 -0.588,0.401 -0.263,0.521 -0.145,1.249 -0.7,1.896 -0.479,0.559 -0.542,0.61 -0.542,0.935 C -0.45,-0.097 -0.151,0 0,0"
             style="fill:#68737a;fill-opacity:1;fill-rule:nonzero;stroke:none"
             id="path178"
             inkscape:connector-curvature="0" />
        </g>
        <g
           id="g180"
           transform="translate(169.6888,123.9284)">
          <path
             d="M 0,0 C 1.367,-0.385 2.032,-0.94 2.032,-1.772 2.032,-2.621 1.699,-2.67 1.415,-3.081 1.2,-3.383 0.985,-3.82 1.012,-5.112 1.012,-5.378 0.93,-5.52 0.735,-5.52 c -0.187,0 -0.292,0.103 -0.292,0.29 0,0.127 0.081,0.214 0.081,0.327 0,0.109 0.037,0.726 -0.388,1.093 -1.235,1.119 -7.33,1.873 -11.208,1.873 -4.705,0 -8.463,-0.997 -9.52,-0.997 -1.913,0 -2.801,0.949 -2.801,1.661 0,0.709 0.416,0.838 0.416,1.176 0,0.341 -0.111,0.392 -0.111,0.681 0,0.292 0.23,0.873 0.464,0.873 0.347,0 0.319,-0.39 0.652,-0.972 0.43,-0.726 1.321,-1.686 3.005,-1.686 1.499,0 2.767,0.57 4.982,1.076 2.712,0.62 4.856,0.917 6.992,0.917 C -6.015,0.792 -2.351,0.748 0,0"
             style="fill:#ed1c2e;fill-opacity:1;fill-rule:nonzero;stroke:none"
             id="path182"
             inkscape:connector-curvature="0" />
        </g>
        <g
           id="g184"
           transform="translate(170.1318,116.2885)">
          <path
             d="m 0,0 c 0.292,0 0.47,-0.072 0.47,-0.268 0,-0.193 -0.305,-0.193 -0.483,-0.23 -0.176,-0.027 -1.346,-0.242 -1.854,-1.061 -0.083,-0.132 -0.013,-0.257 0.092,-0.306 0.119,-0.05 1.441,-0.704 1.441,-1.2 0,-0.477 -1.02,-0.951 -1.322,-0.951 -0.314,0 -0.425,0.369 -0.425,0.437 0,0.134 0.291,0.291 0.291,0.426 0,0.121 -0.245,0.305 -0.382,0.305 -0.153,0 -0.214,-0.07 -0.298,-0.408 -0.075,-0.343 -0.381,-1.696 -0.451,-2.528 -0.064,-0.845 -0.323,-2.977 -0.323,-3.244 0,-0.282 -0.044,-1.035 -0.648,-1.459 -0.597,-0.413 -1.126,-0.712 -1.126,-0.712 0,0 -0.224,-0.147 -0.303,-0.147 -0.082,0 -0.277,0.2 -0.514,0.395 -0.248,0.187 -0.504,0.206 -0.667,0.206 -0.312,0 -0.921,-0.485 -1.372,-0.485 -0.449,0 -1.375,0.499 -1.375,0.784 0,0.091 0.182,0.174 0.23,0.174 0.196,0 0.549,-0.251 0.987,-0.251 0.429,0 0.818,0.39 1.385,0.39 0.327,0 1.072,-0.166 1.66,-0.166 0.596,0 0.826,0.152 0.922,0.325 0.097,0.179 0.292,0.409 0.292,1.09 0,0.672 -0.437,2.953 -0.437,4.335 0,1.396 0.256,2.6 0.955,3.295 C -2.559,-0.558 -1.074,0 0,0"
             style="fill:#68737a;fill-opacity:1;fill-rule:nonzero;stroke:none"
             id="path186"
             inkscape:connector-curvature="0" />
        </g>
        <g
           id="g188"
           transform="translate(170.9908,112.3161)">
          <path
             d="m 0,0 c 0.162,0 0.341,-0.215 0.341,-0.78 0,-0.571 -0.403,-4.374 -1.425,-7.01 -1.017,-2.63 -1.301,-2.651 -2.197,-4.164 -0.886,-1.517 -1.58,-3.12 -2.546,-4.085 -0.372,-0.369 -0.921,-0.82 -2.247,-0.82 -1.317,0 -3.213,0.282 -5.343,1.145 -2.13,0.852 -4.246,2.118 -5.52,3.387 -0.187,0.193 -0.083,0.373 0.241,0.193 0.328,-0.174 2.055,-1.517 5.356,-2.516 2.414,-0.731 3.075,-0.736 4.086,-0.736 0.973,0 2.013,-0.176 3.236,1.04 1.218,1.22 2.238,3.28 2.676,4.074 0.439,0.789 1.304,2.175 2.128,4.743 0.827,2.567 0.973,3.987 1.058,5.099 C -0.146,-0.191 -0.13,0 0,0"
             style="fill:#68737a;fill-opacity:1;fill-rule:nonzero;stroke:none"
             id="path190"
             inkscape:connector-curvature="0" />
        </g>
        <g
           id="g192"
           transform="translate(162.7301,103.9723)">
          <path
             d="m 0,0 c 0.48,0 0.86,-0.668 1.373,-0.668 0.512,0 0.66,0.569 0.973,0.569 0.298,0 0.38,-0.659 0.491,-0.879 0.111,-0.239 0.179,-0.355 0.179,-0.417 0,-0.066 -0.117,-0.153 -0.241,-0.153 -0.118,0 -0.36,0.215 -0.909,0.215 -0.402,0 -0.721,-0.263 -0.749,-0.327 -0.02,-0.062 -0.105,-0.044 -0.181,0.004 -0.168,0.121 -0.519,0.68 -1.103,0.68 -0.312,0 -0.715,-0.203 -1.151,-0.454 -0.43,-0.274 -0.757,-0.378 -1.139,-0.378 -0.334,0 -0.784,0.134 -0.784,0.364 0,0.131 0.18,0.214 0.326,0.214 0.339,0 0.667,-0.077 1.422,0.353 C -0.979,-0.571 -0.418,0 0,0"
             style="fill:#68737a;fill-opacity:1;fill-rule:nonzero;stroke:none"
             id="path194"
             inkscape:connector-curvature="0" />
        </g>
        <g
           id="g196"
           transform="translate(161.2523,101.7014)">
          <path
             d="m 0,0 c 0.257,0 0.673,-0.507 1.942,-0.507 1.228,0 1.561,0.571 1.823,0.571 0.157,0 0.189,-0.167 0.189,-0.231 0,-0.06 -0.477,-1.636 -1.77,-1.636 -0.75,0 -1.559,0.645 -1.852,0.937 -0.289,0.291 -0.499,0.577 -0.499,0.699 C -0.167,-0.039 -0.064,0 0,0"
             style="fill:#68737a;fill-opacity:1;fill-rule:nonzero;stroke:none"
             id="path198"
             inkscape:connector-curvature="0" />
        </g>
        <g
           id="g200"
           transform="translate(159.0477,115.0988)">
          <path
             d="m 0,0 c 0.882,0 2.83,-0.196 2.83,-0.709 0,-0.284 -0.875,-0.018 -1.547,-0.018 -0.681,0 -0.743,-0.037 -0.743,-0.086 0,-0.05 0.014,-0.083 0.068,-0.132 0.063,-0.048 0.508,-0.533 0.508,-0.665 0,-0.522 -1.352,-1.054 -1.673,-1.054 -0.172,0 -0.535,0.192 -0.535,0.422 0,0.166 0.71,0.34 0.71,0.507 0,0.175 -0.41,0.52 -0.784,0.52 -0.377,0 -1.522,-0.803 -1.673,-0.803 -0.158,0 -0.193,0.103 -0.193,0.226 0,0.118 0.103,0.334 0.103,0.444 0,0.369 -0.249,0.328 -0.249,0.621 0,0.158 0.201,0.428 1.332,0.58 C -0.715,0.008 -0.439,0 0,0"
             style="fill:#68737a;fill-opacity:1;fill-rule:nonzero;stroke:none"
             id="path202"
             inkscape:connector-curvature="0" />
        </g>
        <g
           id="g204"
           transform="translate(158.5189,117.5667)">
          <path
             d="M 0,0 C 0.909,0 2.825,-0.147 3.124,-0.206 3.428,-0.263 3.49,-0.4 3.49,-0.485 c 0,-0.148 -0.097,-0.167 -0.45,-0.167 -0.653,0 -2.306,-0.004 -3.984,-0.52 -2.635,-0.815 -3.009,-1.588 -3.449,-1.588 -0.131,0 -0.338,0.165 -0.338,0.341 0,0.164 0.264,0.568 0.264,0.856 0,0.217 -0.216,0.446 -0.216,0.577 C -4.683,-0.505 -2.454,0 0,0"
             style="fill:#68737a;fill-opacity:1;fill-rule:nonzero;stroke:none"
             id="path206"
             inkscape:connector-curvature="0" />
        </g>
        <g
           id="g208"
           transform="translate(181.7944,118.3792)">
          <path
             d="m 0,0 c 1.346,0 1.885,-1.317 1.885,-2.885 0,-0.244 -0.117,-0.653 -0.337,-0.653 -0.313,0 0.097,0.875 -0.702,0.875 -0.195,0 -0.568,-0.212 -0.895,-0.535 -0.333,-0.326 -2.302,-2.981 -3.733,-7.388 -0.713,-2.205 -1.034,-3.586 -1.034,-4.766 0,-0.779 0.229,-1.374 0.229,-1.647 0,-0.483 -0.512,-0.169 -0.594,-0.026 -0.196,0.343 -0.564,1.311 -0.564,2.618 0,1.308 0.564,4.605 1.583,7.943 C -3.615,-4.642 -2.042,0 0,0"
             style="fill:#68737a;fill-opacity:1;fill-rule:nonzero;stroke:none"
             id="path210"
             inkscape:connector-curvature="0" />
        </g>
        <g
           id="g212"
           transform="translate(177.8821,97.0876)">
          <path
             d="m 0,0 c 0.164,0 0.303,-0.083 0.303,-0.182 0,-0.171 -0.656,-0.725 -0.94,-1.032 -0.462,-0.485 -0.592,-1.276 -0.979,-1.276 -0.127,0 -0.202,0.145 -0.202,0.257 0,0.112 0.049,0.213 0.049,0.294 0,0.387 -0.499,0.289 -0.499,0.593 0,0.244 0.715,0.714 1.024,0.909 C -0.937,-0.248 -0.271,0 0,0"
             style="fill:#68737a;fill-opacity:1;fill-rule:nonzero;stroke:none"
             id="path214"
             inkscape:connector-curvature="0" />
        </g>
        <g
           id="g216"
           transform="translate(177.3383,93.9372)">
          <path
             d="m 0,0 c 0.21,0 0.367,-0.068 0.367,-0.156 0,-0.196 -0.784,-0.659 -0.934,-0.811 -0.152,-0.155 -0.972,-1.23 -1.098,-1.842 -0.131,-0.608 -0.324,-0.804 -0.499,-0.804 -0.373,0 -0.144,0.61 -0.422,0.804 -0.2,0.147 -0.729,0.079 -0.729,0.529 0,0.292 0.485,0.763 0.935,1.166 C -1.928,-0.712 -0.983,0 0,0"
             style="fill:#68737a;fill-opacity:1;fill-rule:nonzero;stroke:none"
             id="path218"
             inkscape:connector-curvature="0" />
        </g>
        <g
           id="g220"
           transform="translate(174.1554,99.7642)">
          <path
             d="M 0,0 C 0.202,0 0.353,-0.103 0.45,-0.277 0.555,-0.448 0.509,-0.559 0.68,-0.718 0.847,-0.893 1.459,-0.983 1.459,-1.275 1.459,-1.56 1.131,-1.56 0.971,-1.677 0.802,-1.794 0.365,-1.98 0.028,-2.564 -0.304,-3.148 -0.499,-3.912 -0.563,-4.96 -0.632,-6.005 -0.97,-7.031 -1.504,-7.906 c -0.562,-0.946 -1.415,-1.679 -1.889,-2.456 -0.393,-0.661 -0.257,-1.396 -0.667,-1.396 -0.393,0 -0.456,1.117 -0.456,1.505 0,0.391 0.098,1.713 1.123,2.68 1.139,1.069 2.053,1.117 2.053,2.845 0,1.081 -0.13,1.422 -0.13,2.08 C -1.47,-1.98 -1.241,0 0,0"
             style="fill:#68737a;fill-opacity:1;fill-rule:nonzero;stroke:none"
             id="path222"
             inkscape:connector-curvature="0" />
        </g>
        <g
           id="g224"
           transform="translate(129.2734,123.5432)">
          <path
             d="m 0,0 c 0.671,0 -0.073,-0.273 0.99,-1.334 0.5,-0.499 0.793,-0.716 1.964,-0.716 0.7,0 1.714,0.162 4.26,1.298 1.004,0.452 2.614,0.938 3.78,0.938 1.49,0 2.655,-0.724 3.482,-1.325 0.827,-0.612 1.812,-1.458 2.248,-1.799 0.435,-0.34 1.088,-0.729 1.338,-0.825 0.244,-0.099 0.293,-0.235 0.215,-0.437 -0.069,-0.185 -0.359,-0.624 -0.428,-0.722 -0.078,-0.095 -0.37,-0.242 -0.537,-0.312 -0.172,-0.077 -0.824,-0.34 -1.628,-0.949 -0.793,-0.606 -2.129,-1.333 -3.746,-1.333 -1.631,0 -4.122,0.659 -5.502,0.659 -0.576,0 -1.43,-0.318 -2.034,-0.922 C 4.173,-8.008 3.981,-8.444 3.819,-8.596 3.662,-8.758 3.14,-9.09 2.954,-9.09 c -0.196,0 -0.535,0.125 -0.535,0.311 0,0.369 0.798,0.516 0.798,1.145 0,0.63 -0.195,0.654 -0.195,0.944 0,0.292 0.235,0.81 0.602,1.183 0.794,0.789 2.839,1.265 4.677,1.265 1.332,0 3.922,-0.582 5.69,-0.582 0.749,0 1.332,0.113 1.671,0.264 0.473,0.213 0.366,0.469 0.151,0.469 -0.192,0 -0.171,-0.094 -0.678,-0.094 -0.458,0 -1.54,0.262 -2.462,0.874 -0.916,0.615 -2.388,1.449 -3.804,1.449 -1.427,0 -2.44,-0.5 -2.876,-0.674 -1.049,-0.402 -3.49,-1.803 -4.794,-1.803 -1.306,0 -2.824,0.644 -2.824,1.756 0,1.117 1.102,1.031 1.102,1.695 0,0.116 -0.054,0.191 -0.054,0.324 C -0.577,-0.434 -0.445,0 0,0"
             style="fill:#ed1c2e;fill-opacity:1;fill-rule:nonzero;stroke:none"
             id="path226"
             inkscape:connector-curvature="0" />
        </g>
        <g
           id="g228"
           transform="translate(145.3258,114.0354)">
          <path
             d="m 0,0 c 0.283,0 0.254,-0.311 0.437,-0.514 0.179,-0.215 0.255,0.051 0.512,-0.228 0.265,-0.277 0.134,-0.424 0.312,-0.584 0.172,-0.165 0.459,-0.145 0.465,-0.29 0.048,-0.597 -0.228,-1.546 -0.228,-3 0,-1.025 0.178,-2.198 0.534,-3.23 0.143,-0.43 -0.166,-0.507 -0.318,-0.208 -1.056,1.971 -2.007,4.859 -2.007,7.118 C -0.293,-0.4 -0.21,0 0,0"
             style="fill:#68737a;fill-opacity:1;fill-rule:nonzero;stroke:none"
             id="path230"
             inkscape:connector-curvature="0" />
        </g>
        <g
           id="g232"
           transform="translate(143.9637,111.8772)">
          <path
             d="m 0,0 c 0.132,0 0.201,-0.09 0.201,-0.242 0,-0.159 -0.464,-1.678 -1.158,-2.58 -0.687,-0.896 -1.775,-2.077 -2.171,-2.077 -0.181,0 -0.181,0.213 -0.214,0.285 -0.042,0.075 -0.174,0.244 0.091,0.46 0.269,0.217 0.304,0.337 0.304,0.478 0,0.145 -0.118,0.34 -0.118,0.468 0,0.121 0.103,0.406 0.274,0.509 0.168,0.094 1.223,0.626 1.812,1.34 C -0.387,-0.644 -0.209,0 0,0"
             style="fill:#68737a;fill-opacity:1;fill-rule:nonzero;stroke:none"
             id="path234"
             inkscape:connector-curvature="0" />
        </g>
        <g
           id="g236"
           transform="translate(145.0269,103.7899)">
          <path
             d="m 0,0 c 0,0.193 0.006,0.369 0.006,0.549 0,2.464 -0.535,4.036 -0.868,4.036 -0.499,0 -1.047,-2.42 -1.269,-3.698 -0.791,0.244 -1.35,0.285 -1.791,0.285 -1.233,0 -1.469,-0.263 -1.469,-0.584 0,-0.311 0.27,-0.783 0.578,-1.082 0.748,-0.753 1.616,-0.734 2.433,-0.767 -0.131,-1.535 -0.277,-3.507 -0.277,-4.198 0,-0.224 0.008,-0.583 0.019,-1.015 -0.843,-0.443 -2.24,-1.212 -2.704,-1.678 -0.681,-0.68 -0.756,-1.069 -0.756,-1.525 0,-1.663 1.477,-1.589 1.477,-2.735 0,-0.436 -0.29,-0.893 0.076,-0.893 0.437,0 0.798,0.843 0.798,1.352 0,0.506 -0.439,1.36 -0.439,1.885 0,0.544 0.182,1.132 0.945,1.897 0.18,0.171 0.397,0.338 0.646,0.485 0.054,-1.491 0.123,-3.199 0.152,-3.609 0.049,-0.678 0.078,-2.252 0.416,-2.252 0.339,0 0.944,3.05 1.229,5.18 0.068,0.473 0.146,1.061 0.229,1.713 0.32,0.154 0.629,0.327 0.936,0.513 1.437,0.873 2.4,1.896 2.4,3.068 C 2.767,-1.65 1.45,-0.724 0,0 m -0.445,-5.523 c 0.132,1.167 0.263,2.442 0.348,3.622 0.705,-0.325 1.24,-0.747 1.24,-1.623 0,-1.049 -1.151,-1.771 -1.588,-1.999"
             style="fill:#68737a;fill-opacity:1;fill-rule:nonzero;stroke:none"
             id="path238"
             inkscape:connector-curvature="0" />
        </g>
      </g>
    </g>
  </g>
</svg>
